<mxfile host="65bd71144e">
    <diagram id="Tm-mH-hOg-zbg21zWAmY" name="Page-1">
        <mxGraphModel dx="558" dy="571" grid="0" gridSize="10" guides="1" tooltips="1" connect="1" arrows="1" fold="1" page="1" pageScale="1" pageWidth="850" pageHeight="1100" math="0" shadow="0">
            <root>
                <mxCell id="0"/>
                <mxCell id="1" parent="0"/>
                <mxCell id="51" style="edgeStyle=none;html=1;exitX=1;exitY=0.5;exitDx=0;exitDy=0;entryX=0;entryY=0.5;entryDx=0;entryDy=0;fontFamily=Georgia;" parent="1" source="3" target="38" edge="1">
                    <mxGeometry relative="1" as="geometry"/>
                </mxCell>
                <mxCell id="3" value="" style="ellipse;whiteSpace=wrap;html=1;aspect=fixed;fontFamily=Georgia;" parent="1" vertex="1">
                    <mxGeometry x="78" y="267" width="27" height="27" as="geometry"/>
                </mxCell>
                <mxCell id="52" style="edgeStyle=none;html=1;exitX=1;exitY=0.5;exitDx=0;exitDy=0;entryX=0;entryY=0.5;entryDx=0;entryDy=0;fontFamily=Georgia;" parent="1" source="38" target="39" edge="1">
                    <mxGeometry relative="1" as="geometry"/>
                </mxCell>
                <mxCell id="59" style="edgeStyle=none;html=1;exitX=0;exitY=1;exitDx=0;exitDy=0;entryX=1;entryY=0;entryDx=0;entryDy=0;fontFamily=Georgia;fillColor=#d5e8d4;strokeColor=#82b366;" parent="1" source="38" target="43" edge="1">
                    <mxGeometry relative="1" as="geometry"/>
                </mxCell>
                <mxCell id="38" value="" style="ellipse;whiteSpace=wrap;html=1;aspect=fixed;fontFamily=Georgia;" parent="1" vertex="1">
                    <mxGeometry x="181" y="267" width="27" height="27" as="geometry"/>
                </mxCell>
                <mxCell id="53" style="edgeStyle=none;html=1;exitX=1;exitY=0.5;exitDx=0;exitDy=0;entryX=0;entryY=0.5;entryDx=0;entryDy=0;fontFamily=Georgia;" parent="1" source="39" target="40" edge="1">
                    <mxGeometry relative="1" as="geometry"/>
                </mxCell>
                <mxCell id="61" style="edgeStyle=none;html=1;exitX=0;exitY=1;exitDx=0;exitDy=0;entryX=1;entryY=0;entryDx=0;entryDy=0;fontFamily=Georgia;fillColor=#d5e8d4;strokeColor=#82b366;" parent="1" source="39" target="44" edge="1">
                    <mxGeometry relative="1" as="geometry"/>
                </mxCell>
                <mxCell id="39" value="" style="ellipse;whiteSpace=wrap;html=1;aspect=fixed;fontFamily=Georgia;" parent="1" vertex="1">
                    <mxGeometry x="284" y="267" width="27" height="27" as="geometry"/>
                </mxCell>
                <mxCell id="56" style="edgeStyle=none;html=1;exitX=1;exitY=0.5;exitDx=0;exitDy=0;entryX=0;entryY=0.5;entryDx=0;entryDy=0;fontFamily=Georgia;" parent="1" source="40" target="55" edge="1">
                    <mxGeometry relative="1" as="geometry"/>
                </mxCell>
                <mxCell id="69" style="edgeStyle=none;html=1;exitX=0;exitY=1;exitDx=0;exitDy=0;entryX=1;entryY=0;entryDx=0;entryDy=0;fontFamily=Georgia;fillColor=#d5e8d4;strokeColor=#82b366;" parent="1" source="40" target="45" edge="1">
                    <mxGeometry relative="1" as="geometry"/>
                </mxCell>
                <mxCell id="40" value="" style="ellipse;whiteSpace=wrap;html=1;aspect=fixed;fontFamily=Georgia;" parent="1" vertex="1">
                    <mxGeometry x="387" y="267" width="27" height="27" as="geometry"/>
                </mxCell>
                <mxCell id="43" value="t1" style="ellipse;whiteSpace=wrap;html=1;aspect=fixed;fontFamily=Georgia;" parent="1" vertex="1">
                    <mxGeometry x="129.5" y="315" width="27" height="27" as="geometry"/>
                </mxCell>
                <mxCell id="44" value="t2" style="ellipse;whiteSpace=wrap;html=1;aspect=fixed;fontFamily=Georgia;" parent="1" vertex="1">
                    <mxGeometry x="232.5" y="315" width="27" height="27" as="geometry"/>
                </mxCell>
                <mxCell id="45" value="t3" style="ellipse;whiteSpace=wrap;html=1;aspect=fixed;fontFamily=Georgia;" parent="1" vertex="1">
                    <mxGeometry x="335.5" y="315" width="27" height="27" as="geometry"/>
                </mxCell>
                <mxCell id="46" value="t4" style="ellipse;whiteSpace=wrap;html=1;aspect=fixed;fontFamily=Georgia;" parent="1" vertex="1">
                    <mxGeometry x="438.5" y="315" width="27" height="27" as="geometry"/>
                </mxCell>
                <mxCell id="58" style="edgeStyle=none;html=1;exitX=1;exitY=1;exitDx=0;exitDy=0;entryX=0;entryY=0;entryDx=0;entryDy=0;fontFamily=Georgia;fillColor=#d5e8d4;strokeColor=#82b366;" parent="1" source="47" target="38" edge="1">
                    <mxGeometry relative="1" as="geometry"/>
                </mxCell>
                <mxCell id="47" value="s1" style="ellipse;whiteSpace=wrap;html=1;aspect=fixed;fontFamily=Georgia;" parent="1" vertex="1">
                    <mxGeometry x="129.5" y="216" width="27" height="27" as="geometry"/>
                </mxCell>
                <mxCell id="60" style="edgeStyle=none;html=1;exitX=1;exitY=1;exitDx=0;exitDy=0;entryX=0;entryY=0;entryDx=0;entryDy=0;fontFamily=Georgia;fillColor=#d5e8d4;strokeColor=#82b366;" parent="1" source="48" target="39" edge="1">
                    <mxGeometry relative="1" as="geometry"/>
                </mxCell>
                <mxCell id="48" value="s2" style="ellipse;whiteSpace=wrap;html=1;aspect=fixed;fontFamily=Georgia;" parent="1" vertex="1">
                    <mxGeometry x="232.5" y="216" width="27" height="27" as="geometry"/>
                </mxCell>
                <mxCell id="62" style="edgeStyle=none;html=1;exitX=1;exitY=1;exitDx=0;exitDy=0;entryX=0;entryY=0;entryDx=0;entryDy=0;fontFamily=Georgia;fillColor=#ffe6cc;strokeColor=#d79b00;" parent="1" source="49" target="40" edge="1">
                    <mxGeometry relative="1" as="geometry"/>
                </mxCell>
                <mxCell id="49" value="s3" style="ellipse;whiteSpace=wrap;html=1;aspect=fixed;fontFamily=Georgia;" parent="1" vertex="1">
                    <mxGeometry x="335.5" y="216" width="27" height="27" as="geometry"/>
                </mxCell>
                <mxCell id="64" style="edgeStyle=none;html=1;exitX=0;exitY=1;exitDx=0;exitDy=0;entryX=1;entryY=0;entryDx=0;entryDy=0;fontFamily=Georgia;fillColor=#ffe6cc;strokeColor=#d79b00;" parent="1" source="50" target="40" edge="1">
                    <mxGeometry relative="1" as="geometry"/>
                </mxCell>
                <mxCell id="50" value="s4" style="ellipse;whiteSpace=wrap;html=1;aspect=fixed;fontFamily=Georgia;" parent="1" vertex="1">
                    <mxGeometry x="438.5" y="216" width="27" height="27" as="geometry"/>
                </mxCell>
                <mxCell id="63" style="edgeStyle=none;html=1;exitX=0;exitY=1;exitDx=0;exitDy=0;entryX=1;entryY=0;entryDx=0;entryDy=0;fontFamily=Georgia;" parent="1" source="55" target="46" edge="1">
                    <mxGeometry relative="1" as="geometry"/>
                </mxCell>
                <mxCell id="55" value="" style="ellipse;whiteSpace=wrap;html=1;aspect=fixed;fontFamily=Georgia;" parent="1" vertex="1">
                    <mxGeometry x="490" y="267" width="27" height="27" as="geometry"/>
                </mxCell>
                <mxCell id="267" style="edgeStyle=none;html=1;exitX=1;exitY=0.5;exitDx=0;exitDy=0;entryX=0;entryY=0.5;entryDx=0;entryDy=0;fillColor=#d5e8d4;strokeColor=#82b366;" parent="1" source="254" target="255" edge="1">
                    <mxGeometry relative="1" as="geometry"/>
                </mxCell>
                <mxCell id="274" style="edgeStyle=none;html=1;exitX=1;exitY=1;exitDx=0;exitDy=0;entryX=0;entryY=0;entryDx=0;entryDy=0;fillColor=#ffe6cc;strokeColor=#d79b00;" parent="1" source="254" target="258" edge="1">
                    <mxGeometry relative="1" as="geometry"/>
                </mxCell>
                <mxCell id="254" value="s2" style="ellipse;whiteSpace=wrap;html=1;aspect=fixed;fontFamily=Georgia;" parent="1" vertex="1">
                    <mxGeometry x="116" y="1248" width="27" height="27" as="geometry"/>
                </mxCell>
                <mxCell id="268" style="edgeStyle=none;html=1;exitX=1;exitY=0.5;exitDx=0;exitDy=0;fillColor=#e1d5e7;strokeColor=#9673a6;" parent="1" source="255" target="256" edge="1">
                    <mxGeometry relative="1" as="geometry"/>
                </mxCell>
                <mxCell id="270" style="edgeStyle=none;html=1;exitX=1;exitY=0;exitDx=0;exitDy=0;entryX=0;entryY=1;entryDx=0;entryDy=0;fillColor=#d5e8d4;strokeColor=#82b366;" parent="1" source="255" target="257" edge="1">
                    <mxGeometry relative="1" as="geometry"/>
                </mxCell>
                <mxCell id="255" value="" style="ellipse;whiteSpace=wrap;html=1;aspect=fixed;fontFamily=Georgia;" parent="1" vertex="1">
                    <mxGeometry x="219" y="1248" width="27" height="27" as="geometry"/>
                </mxCell>
                <mxCell id="269" style="edgeStyle=none;html=1;exitX=1;exitY=0.5;exitDx=0;exitDy=0;entryX=0;entryY=0.5;entryDx=0;entryDy=0;fillColor=#f8cecc;strokeColor=#b85450;" parent="1" source="256" target="265" edge="1">
                    <mxGeometry relative="1" as="geometry"/>
                </mxCell>
                <mxCell id="342" style="edgeStyle=none;html=1;exitX=1;exitY=1;exitDx=0;exitDy=0;entryX=0;entryY=0;entryDx=0;entryDy=0;fillColor=#e1d5e7;strokeColor=#9673a6;" edge="1" parent="1" source="256" target="341">
                    <mxGeometry relative="1" as="geometry"/>
                </mxCell>
                <mxCell id="256" value="" style="ellipse;whiteSpace=wrap;html=1;aspect=fixed;fontFamily=Georgia;" parent="1" vertex="1">
                    <mxGeometry x="322" y="1248" width="27" height="27" as="geometry"/>
                </mxCell>
                <mxCell id="271" style="edgeStyle=none;html=1;exitX=1;exitY=0.5;exitDx=0;exitDy=0;entryX=0;entryY=0.5;entryDx=0;entryDy=0;fillColor=#d5e8d4;strokeColor=#82b366;" parent="1" source="257" target="261" edge="1">
                    <mxGeometry relative="1" as="geometry"/>
                </mxCell>
                <mxCell id="257" value="&lt;span style=&quot;color: rgba(0, 0, 0, 0); font-family: monospace; font-size: 0px; text-align: start;&quot;&gt;%3CmxGraphModel%3E%3Croot%3E%3CmxCell%20id%3D%220%22%2F%3E%3CmxCell%20id%3D%221%22%20parent%3D%220%22%2F%3E%3CmxCell%20id%3D%222%22%20value%3D%22%22%20style%3D%22ellipse%3BwhiteSpace%3Dwrap%3Bhtml%3D1%3Baspect%3Dfixed%3BfontFamily%3DGeorgia%3B%22%20vertex%3D%221%22%20parent%3D%221%22%3E%3CmxGeometry%20x%3D%22271.5%22%20y%3D%22622%22%20width%3D%2227%22%20height%3D%2227%22%20as%3D%22geometry%22%2F%3E%3C%2FmxCell%3E%3CmxCell%20id%3D%223%22%20value%3D%22t2%22%20style%3D%22ellipse%3BwhiteSpace%3Dwrap%3Bhtml%3D1%3Baspect%3Dfixed%3BfontFamily%3DGeorgia%3B%22%20vertex%3D%221%22%20parent%3D%221%22%3E%3CmxGeometry%20x%3D%22374.5%22%20y%3D%22622%22%20width%3D%2227%22%20height%3D%2227%22%20as%3D%22geometry%22%2F%3E%3C%2FmxCell%3E%3C%2Froot%3E%3C%2FmxGraphModel%3E&lt;/span&gt;" style="ellipse;whiteSpace=wrap;html=1;aspect=fixed;fontFamily=Georgia;" parent="1" vertex="1">
                    <mxGeometry x="314" y="1156" width="27" height="27" as="geometry"/>
                </mxCell>
                <mxCell id="275" style="edgeStyle=none;html=1;exitX=1;exitY=0.5;exitDx=0;exitDy=0;entryX=0;entryY=0.5;entryDx=0;entryDy=0;fillColor=#ffe6cc;strokeColor=#d79b00;" parent="1" source="258" target="266" edge="1">
                    <mxGeometry relative="1" as="geometry"/>
                </mxCell>
                <mxCell id="258" value="" style="ellipse;whiteSpace=wrap;html=1;aspect=fixed;fontFamily=Georgia;" parent="1" vertex="1">
                    <mxGeometry x="219" y="1357" width="27" height="27" as="geometry"/>
                </mxCell>
                <mxCell id="261" value="t1" style="ellipse;whiteSpace=wrap;html=1;aspect=fixed;fontFamily=Georgia;" parent="1" vertex="1">
                    <mxGeometry x="420" y="1156" width="27" height="27" as="geometry"/>
                </mxCell>
                <mxCell id="350" style="edgeStyle=none;html=1;exitX=1;exitY=0.5;exitDx=0;exitDy=0;entryX=0;entryY=0.5;entryDx=0;entryDy=0;fillColor=#f8cecc;strokeColor=#b85450;" edge="1" parent="1" source="265" target="349">
                    <mxGeometry relative="1" as="geometry"/>
                </mxCell>
                <mxCell id="265" value="t2" style="ellipse;whiteSpace=wrap;html=1;aspect=fixed;fontFamily=Georgia;" parent="1" vertex="1">
                    <mxGeometry x="425" y="1248" width="27" height="27" as="geometry"/>
                </mxCell>
                <mxCell id="276" style="edgeStyle=none;html=1;exitX=1;exitY=0;exitDx=0;exitDy=0;entryX=0;entryY=1;entryDx=0;entryDy=0;fillColor=#ffe6cc;strokeColor=#d79b00;" parent="1" source="266" target="265" edge="1">
                    <mxGeometry relative="1" as="geometry"/>
                </mxCell>
                <mxCell id="266" value="" style="ellipse;whiteSpace=wrap;html=1;aspect=fixed;fontFamily=Georgia;" parent="1" vertex="1">
                    <mxGeometry x="322" y="1357" width="27" height="27" as="geometry"/>
                </mxCell>
                <mxCell id="278" style="edgeStyle=none;html=1;exitX=1;exitY=1;exitDx=0;exitDy=0;entryX=0;entryY=0;entryDx=0;entryDy=0;fillColor=#d5e8d4;strokeColor=#82b366;" parent="1" source="277" target="254" edge="1">
                    <mxGeometry relative="1" as="geometry"/>
                </mxCell>
                <mxCell id="277" value="s1" style="ellipse;whiteSpace=wrap;html=1;aspect=fixed;fontFamily=Georgia;" parent="1" vertex="1">
                    <mxGeometry x="17" y="1156" width="27" height="27" as="geometry"/>
                </mxCell>
                <mxCell id="340" style="edgeStyle=none;html=1;exitX=1;exitY=0;exitDx=0;exitDy=0;entryX=0;entryY=1;entryDx=0;entryDy=0;fillColor=#e1d5e7;strokeColor=#9673a6;" edge="1" parent="1" source="279" target="255">
                    <mxGeometry relative="1" as="geometry"/>
                </mxCell>
                <mxCell id="279" value="s3" style="ellipse;whiteSpace=wrap;html=1;aspect=fixed;fontFamily=Georgia;" parent="1" vertex="1">
                    <mxGeometry x="116" y="1357" width="27" height="27" as="geometry"/>
                </mxCell>
                <mxCell id="321" value="s" style="ellipse;whiteSpace=wrap;html=1;aspect=fixed;fontFamily=Georgia;" parent="1" vertex="1">
                    <mxGeometry x="228.5" y="647" width="27" height="27" as="geometry"/>
                </mxCell>
                <mxCell id="322" value="" style="ellipse;whiteSpace=wrap;html=1;aspect=fixed;fontFamily=Georgia;" parent="1" vertex="1">
                    <mxGeometry x="331.5" y="647" width="27" height="27" as="geometry"/>
                </mxCell>
                <mxCell id="323" value="t" style="ellipse;whiteSpace=wrap;html=1;aspect=fixed;fontFamily=Georgia;" parent="1" vertex="1">
                    <mxGeometry x="434.5" y="647" width="27" height="27" as="geometry"/>
                </mxCell>
                <mxCell id="325" value="&lt;span style=&quot;color: rgba(0, 0, 0, 0); font-family: monospace; font-size: 0px; text-align: start;&quot;&gt;%3CmxGraphModel%3E%3Croot%3E%3CmxCell%20id%3D%220%22%2F%3E%3CmxCell%20id%3D%221%22%20parent%3D%220%22%2F%3E%3CmxCell%20id%3D%222%22%20value%3D%22%22%20style%3D%22ellipse%3BwhiteSpace%3Dwrap%3Bhtml%3D1%3Baspect%3Dfixed%3BfontFamily%3DGeorgia%3B%22%20vertex%3D%221%22%20parent%3D%221%22%3E%3CmxGeometry%20x%3D%22271.5%22%20y%3D%22622%22%20width%3D%2227%22%20height%3D%2227%22%20as%3D%22geometry%22%2F%3E%3C%2FmxCell%3E%3CmxCell%20id%3D%223%22%20value%3D%22t2%22%20style%3D%22ellipse%3BwhiteSpace%3Dwrap%3Bhtml%3D1%3Baspect%3Dfixed%3BfontFamily%3DGeorgia%3B%22%20vertex%3D%221%22%20parent%3D%221%22%3E%3CmxGeometry%20x%3D%22374.5%22%20y%3D%22622%22%20width%3D%2227%22%20height%3D%2227%22%20as%3D%22geometry%22%2F%3E%3C%2FmxCell%3E%3C%2Froot%3E%3C%2FmxGraphModel%3E&lt;/span&gt;" style="ellipse;whiteSpace=wrap;html=1;aspect=fixed;fontFamily=Georgia;" parent="1" vertex="1">
                    <mxGeometry x="383" y="695" width="27" height="27" as="geometry"/>
                </mxCell>
                <mxCell id="327" value="" style="ellipse;whiteSpace=wrap;html=1;aspect=fixed;fontFamily=Georgia;" parent="1" vertex="1">
                    <mxGeometry x="280" y="596" width="27" height="27" as="geometry"/>
                </mxCell>
                <mxCell id="328" value="" style="ellipse;whiteSpace=wrap;html=1;aspect=fixed;fontFamily=Georgia;" parent="1" vertex="1">
                    <mxGeometry x="383" y="596" width="27" height="27" as="geometry"/>
                </mxCell>
                <mxCell id="330" value="" style="ellipse;whiteSpace=wrap;html=1;aspect=fixed;fontFamily=Georgia;" parent="1" vertex="1">
                    <mxGeometry x="177" y="596" width="27" height="27" as="geometry"/>
                </mxCell>
                <mxCell id="331" value="" style="ellipse;whiteSpace=wrap;html=1;aspect=fixed;fontFamily=Georgia;" parent="1" vertex="1">
                    <mxGeometry x="280" y="695" width="27" height="27" as="geometry"/>
                </mxCell>
                <mxCell id="332" value="" style="ellipse;whiteSpace=wrap;html=1;aspect=fixed;fontFamily=Georgia;" parent="1" vertex="1">
                    <mxGeometry x="177" y="695" width="27" height="27" as="geometry"/>
                </mxCell>
                <mxCell id="341" value="t3" style="ellipse;whiteSpace=wrap;html=1;aspect=fixed;fontFamily=Georgia;" vertex="1" parent="1">
                    <mxGeometry x="420" y="1357" width="27" height="27" as="geometry"/>
                </mxCell>
                <mxCell id="347" style="edgeStyle=none;html=1;exitX=1;exitY=0.5;exitDx=0;exitDy=0;entryX=0;entryY=0.5;entryDx=0;entryDy=0;fillColor=#f8cecc;strokeColor=#b85450;" edge="1" parent="1" source="343" target="346">
                    <mxGeometry relative="1" as="geometry"/>
                </mxCell>
                <mxCell id="343" value="s4" style="ellipse;whiteSpace=wrap;html=1;aspect=fixed;fontFamily=Georgia;" vertex="1" parent="1">
                    <mxGeometry x="116" y="1156" width="27" height="27" as="geometry"/>
                </mxCell>
                <mxCell id="348" style="edgeStyle=none;html=1;exitX=1;exitY=1;exitDx=0;exitDy=0;entryX=0;entryY=0;entryDx=0;entryDy=0;fillColor=#f8cecc;strokeColor=#b85450;" edge="1" parent="1" source="346" target="256">
                    <mxGeometry relative="1" as="geometry"/>
                </mxCell>
                <mxCell id="346" value="" style="ellipse;whiteSpace=wrap;html=1;aspect=fixed;fontFamily=Georgia;" vertex="1" parent="1">
                    <mxGeometry x="215" y="1156" width="27" height="27" as="geometry"/>
                </mxCell>
                <mxCell id="349" value="t5" style="ellipse;whiteSpace=wrap;html=1;aspect=fixed;fontFamily=Georgia;" vertex="1" parent="1">
                    <mxGeometry x="528" y="1248" width="27" height="27" as="geometry"/>
                </mxCell>
                <mxCell id="352" style="edgeStyle=none;html=1;exitX=1;exitY=0.5;exitDx=0;exitDy=0;entryX=0;entryY=0.5;entryDx=0;entryDy=0;fillColor=#f8cecc;strokeColor=#b85450;" edge="1" parent="1" source="354" target="357">
                    <mxGeometry relative="1" as="geometry"/>
                </mxCell>
                <mxCell id="353" style="edgeStyle=none;html=1;exitX=1;exitY=1;exitDx=0;exitDy=0;entryX=0;entryY=0;entryDx=0;entryDy=0;" edge="1" parent="1" source="354" target="364">
                    <mxGeometry relative="1" as="geometry"/>
                </mxCell>
                <mxCell id="354" value="s2" style="ellipse;whiteSpace=wrap;html=1;aspect=fixed;fontFamily=Georgia;" vertex="1" parent="1">
                    <mxGeometry x="123.5" y="1589" width="27" height="27" as="geometry"/>
                </mxCell>
                <mxCell id="355" style="edgeStyle=none;html=1;exitX=1;exitY=0.5;exitDx=0;exitDy=0;fillColor=#f8cecc;strokeColor=#b85450;" edge="1" parent="1" source="357" target="360">
                    <mxGeometry relative="1" as="geometry"/>
                </mxCell>
                <mxCell id="356" style="edgeStyle=none;html=1;exitX=1;exitY=0;exitDx=0;exitDy=0;entryX=0;entryY=1;entryDx=0;entryDy=0;" edge="1" parent="1" source="357" target="362">
                    <mxGeometry relative="1" as="geometry"/>
                </mxCell>
                <mxCell id="357" value="" style="ellipse;whiteSpace=wrap;html=1;aspect=fixed;fontFamily=Georgia;" vertex="1" parent="1">
                    <mxGeometry x="226.5" y="1589" width="27" height="27" as="geometry"/>
                </mxCell>
                <mxCell id="358" style="edgeStyle=none;html=1;exitX=1;exitY=0.5;exitDx=0;exitDy=0;entryX=0;entryY=0.5;entryDx=0;entryDy=0;fillColor=#f8cecc;strokeColor=#b85450;" edge="1" parent="1" source="360" target="367">
                    <mxGeometry relative="1" as="geometry"/>
                </mxCell>
                <mxCell id="359" style="edgeStyle=none;html=1;exitX=1;exitY=1;exitDx=0;exitDy=0;entryX=0;entryY=0;entryDx=0;entryDy=0;" edge="1" parent="1" source="360" target="374">
                    <mxGeometry relative="1" as="geometry"/>
                </mxCell>
                <mxCell id="360" value="" style="ellipse;whiteSpace=wrap;html=1;aspect=fixed;fontFamily=Georgia;" vertex="1" parent="1">
                    <mxGeometry x="329.5" y="1589" width="27" height="27" as="geometry"/>
                </mxCell>
                <mxCell id="361" style="edgeStyle=none;html=1;exitX=1;exitY=0.5;exitDx=0;exitDy=0;entryX=0;entryY=0.5;entryDx=0;entryDy=0;" edge="1" parent="1" source="362" target="365">
                    <mxGeometry relative="1" as="geometry"/>
                </mxCell>
                <mxCell id="362" value="&lt;span style=&quot;color: rgba(0, 0, 0, 0); font-family: monospace; font-size: 0px; text-align: start;&quot;&gt;%3CmxGraphModel%3E%3Croot%3E%3CmxCell%20id%3D%220%22%2F%3E%3CmxCell%20id%3D%221%22%20parent%3D%220%22%2F%3E%3CmxCell%20id%3D%222%22%20value%3D%22%22%20style%3D%22ellipse%3BwhiteSpace%3Dwrap%3Bhtml%3D1%3Baspect%3Dfixed%3BfontFamily%3DGeorgia%3B%22%20vertex%3D%221%22%20parent%3D%221%22%3E%3CmxGeometry%20x%3D%22271.5%22%20y%3D%22622%22%20width%3D%2227%22%20height%3D%2227%22%20as%3D%22geometry%22%2F%3E%3C%2FmxCell%3E%3CmxCell%20id%3D%223%22%20value%3D%22t2%22%20style%3D%22ellipse%3BwhiteSpace%3Dwrap%3Bhtml%3D1%3Baspect%3Dfixed%3BfontFamily%3DGeorgia%3B%22%20vertex%3D%221%22%20parent%3D%221%22%3E%3CmxGeometry%20x%3D%22374.5%22%20y%3D%22622%22%20width%3D%2227%22%20height%3D%2227%22%20as%3D%22geometry%22%2F%3E%3C%2FmxCell%3E%3C%2Froot%3E%3C%2FmxGraphModel%3E&lt;/span&gt;" style="ellipse;whiteSpace=wrap;html=1;aspect=fixed;fontFamily=Georgia;" vertex="1" parent="1">
                    <mxGeometry x="321.5" y="1497" width="27" height="27" as="geometry"/>
                </mxCell>
                <mxCell id="363" style="edgeStyle=none;html=1;exitX=1;exitY=0.5;exitDx=0;exitDy=0;entryX=0;entryY=0.5;entryDx=0;entryDy=0;" edge="1" parent="1" source="364" target="369">
                    <mxGeometry relative="1" as="geometry"/>
                </mxCell>
                <mxCell id="364" value="" style="ellipse;whiteSpace=wrap;html=1;aspect=fixed;fontFamily=Georgia;" vertex="1" parent="1">
                    <mxGeometry x="226.5" y="1698" width="27" height="27" as="geometry"/>
                </mxCell>
                <mxCell id="365" value="t1" style="ellipse;whiteSpace=wrap;html=1;aspect=fixed;fontFamily=Georgia;" vertex="1" parent="1">
                    <mxGeometry x="427.5" y="1497" width="27" height="27" as="geometry"/>
                </mxCell>
                <mxCell id="366" style="edgeStyle=none;html=1;exitX=1;exitY=0.5;exitDx=0;exitDy=0;entryX=0;entryY=0.5;entryDx=0;entryDy=0;fillColor=#f8cecc;strokeColor=#b85450;" edge="1" parent="1" source="367" target="379">
                    <mxGeometry relative="1" as="geometry"/>
                </mxCell>
                <mxCell id="367" value="t2" style="ellipse;whiteSpace=wrap;html=1;aspect=fixed;fontFamily=Georgia;" vertex="1" parent="1">
                    <mxGeometry x="432.5" y="1589" width="27" height="27" as="geometry"/>
                </mxCell>
                <mxCell id="368" style="edgeStyle=none;html=1;exitX=1;exitY=0;exitDx=0;exitDy=0;entryX=0;entryY=1;entryDx=0;entryDy=0;" edge="1" parent="1" source="369" target="367">
                    <mxGeometry relative="1" as="geometry"/>
                </mxCell>
                <mxCell id="369" value="" style="ellipse;whiteSpace=wrap;html=1;aspect=fixed;fontFamily=Georgia;" vertex="1" parent="1">
                    <mxGeometry x="329.5" y="1698" width="27" height="27" as="geometry"/>
                </mxCell>
                <mxCell id="370" style="edgeStyle=none;html=1;exitX=1;exitY=1;exitDx=0;exitDy=0;entryX=0;entryY=0;entryDx=0;entryDy=0;" edge="1" parent="1" source="371" target="354">
                    <mxGeometry relative="1" as="geometry"/>
                </mxCell>
                <mxCell id="371" value="s1" style="ellipse;whiteSpace=wrap;html=1;aspect=fixed;fontFamily=Georgia;" vertex="1" parent="1">
                    <mxGeometry x="24.5" y="1497" width="27" height="27" as="geometry"/>
                </mxCell>
                <mxCell id="372" style="edgeStyle=none;html=1;exitX=1;exitY=0;exitDx=0;exitDy=0;entryX=0;entryY=1;entryDx=0;entryDy=0;" edge="1" parent="1" source="373" target="357">
                    <mxGeometry relative="1" as="geometry"/>
                </mxCell>
                <mxCell id="373" value="s3" style="ellipse;whiteSpace=wrap;html=1;aspect=fixed;fontFamily=Georgia;" vertex="1" parent="1">
                    <mxGeometry x="123.5" y="1698" width="27" height="27" as="geometry"/>
                </mxCell>
                <mxCell id="374" value="t3" style="ellipse;whiteSpace=wrap;html=1;aspect=fixed;fontFamily=Georgia;" vertex="1" parent="1">
                    <mxGeometry x="427.5" y="1698" width="27" height="27" as="geometry"/>
                </mxCell>
                <mxCell id="375" style="edgeStyle=none;html=1;exitX=1;exitY=0.5;exitDx=0;exitDy=0;entryX=0;entryY=0.5;entryDx=0;entryDy=0;" edge="1" parent="1" source="376" target="378">
                    <mxGeometry relative="1" as="geometry"/>
                </mxCell>
                <mxCell id="376" value="s4" style="ellipse;whiteSpace=wrap;html=1;aspect=fixed;fontFamily=Georgia;" vertex="1" parent="1">
                    <mxGeometry x="123.5" y="1497" width="27" height="27" as="geometry"/>
                </mxCell>
                <mxCell id="377" style="edgeStyle=none;html=1;exitX=1;exitY=1;exitDx=0;exitDy=0;entryX=0;entryY=0;entryDx=0;entryDy=0;" edge="1" parent="1" source="378" target="360">
                    <mxGeometry relative="1" as="geometry"/>
                </mxCell>
                <mxCell id="378" value="" style="ellipse;whiteSpace=wrap;html=1;aspect=fixed;fontFamily=Georgia;" vertex="1" parent="1">
                    <mxGeometry x="222.5" y="1497" width="27" height="27" as="geometry"/>
                </mxCell>
                <mxCell id="379" value="t5" style="ellipse;whiteSpace=wrap;html=1;aspect=fixed;fontFamily=Georgia;" vertex="1" parent="1">
                    <mxGeometry x="535.5" y="1589" width="27" height="27" as="geometry"/>
                </mxCell>
                <mxCell id="394" style="edgeStyle=none;html=1;exitX=1;exitY=0.5;exitDx=0;exitDy=0;entryX=0;entryY=0.5;entryDx=0;entryDy=0;" edge="1" parent="1" source="380" target="381">
                    <mxGeometry relative="1" as="geometry"/>
                </mxCell>
                <mxCell id="380" value="A" style="ellipse;whiteSpace=wrap;html=1;aspect=fixed;fontFamily=Georgia;" vertex="1" parent="1">
                    <mxGeometry x="140.5" y="2396" width="27" height="27" as="geometry"/>
                </mxCell>
                <mxCell id="395" style="edgeStyle=none;html=1;exitX=1;exitY=0.5;exitDx=0;exitDy=0;" edge="1" parent="1" source="381" target="382">
                    <mxGeometry relative="1" as="geometry"/>
                </mxCell>
                <mxCell id="381" value="B" style="ellipse;whiteSpace=wrap;html=1;aspect=fixed;fontFamily=Georgia;" vertex="1" parent="1">
                    <mxGeometry x="243.5" y="2396" width="27" height="27" as="geometry"/>
                </mxCell>
                <mxCell id="396" style="edgeStyle=none;html=1;exitX=1;exitY=0.5;exitDx=0;exitDy=0;entryX=0;entryY=0.5;entryDx=0;entryDy=0;" edge="1" parent="1" source="382" target="383">
                    <mxGeometry relative="1" as="geometry"/>
                </mxCell>
                <mxCell id="382" value="C" style="ellipse;whiteSpace=wrap;html=1;aspect=fixed;fontFamily=Georgia;" vertex="1" parent="1">
                    <mxGeometry x="346.5" y="2396" width="27" height="27" as="geometry"/>
                </mxCell>
                <mxCell id="383" value="D" style="ellipse;whiteSpace=wrap;html=1;aspect=fixed;fontFamily=Georgia;" vertex="1" parent="1">
                    <mxGeometry x="449.5" y="2396" width="27" height="27" as="geometry"/>
                </mxCell>
                <mxCell id="432" style="edgeStyle=none;html=1;exitX=1;exitY=0.5;exitDx=0;exitDy=0;entryX=0;entryY=0.5;entryDx=0;entryDy=0;fillColor=#d5e8d4;strokeColor=#82b366;" edge="1" parent="1">
                    <mxGeometry relative="1" as="geometry">
                        <mxPoint x="167.5" y="2436.5" as="sourcePoint"/>
                        <mxPoint x="449.5" y="2436.5" as="targetPoint"/>
                    </mxGeometry>
                </mxCell>
                <mxCell id="439" style="edgeStyle=none;html=1;exitX=1;exitY=0.5;exitDx=0;exitDy=0;entryX=0;entryY=0.5;entryDx=0;entryDy=0;" edge="1" parent="1" source="440">
                    <mxGeometry relative="1" as="geometry">
                        <mxPoint x="243.5" y="2462.5" as="targetPoint"/>
                    </mxGeometry>
                </mxCell>
                <mxCell id="441" style="edgeStyle=none;html=1;exitX=1;exitY=0.5;exitDx=0;exitDy=0;fillColor=#ffe6cc;strokeColor=#d79b00;" edge="1" parent="1">
                    <mxGeometry relative="1" as="geometry">
                        <mxPoint x="167.5" y="2454" as="sourcePoint"/>
                        <mxPoint x="243.5" y="2454" as="targetPoint"/>
                    </mxGeometry>
                </mxCell>
                <mxCell id="448" style="edgeStyle=none;html=1;exitX=1;exitY=0.5;exitDx=0;exitDy=0;fillColor=#f8cecc;strokeColor=#b85450;" edge="1" parent="1">
                    <mxGeometry relative="1" as="geometry">
                        <mxPoint x="270.5" y="2454" as="sourcePoint"/>
                        <mxPoint x="346.5" y="2454" as="targetPoint"/>
                    </mxGeometry>
                </mxCell>
                <mxCell id="449" style="edgeStyle=none;html=1;exitX=1;exitY=0.5;exitDx=0;exitDy=0;fillColor=#e1d5e7;strokeColor=#9673a6;" edge="1" parent="1">
                    <mxGeometry relative="1" as="geometry">
                        <mxPoint x="373.5" y="2454" as="sourcePoint"/>
                        <mxPoint x="449.5" y="2454" as="targetPoint"/>
                    </mxGeometry>
                </mxCell>
                <mxCell id="472" style="edgeStyle=none;html=1;exitX=1;exitY=0.5;exitDx=0;exitDy=0;entryX=0;entryY=0.5;entryDx=0;entryDy=0;fillColor=#f8cecc;strokeColor=#b85450;" edge="1" parent="1" source="451" target="457">
                    <mxGeometry relative="1" as="geometry"/>
                </mxCell>
                <mxCell id="473" style="edgeStyle=none;html=1;exitX=1;exitY=0.5;exitDx=0;exitDy=0;entryX=0;entryY=0.5;entryDx=0;entryDy=0;" edge="1" parent="1" source="451" target="461">
                    <mxGeometry relative="1" as="geometry">
                        <mxPoint x="269" y="2770" as="targetPoint"/>
                    </mxGeometry>
                </mxCell>
                <mxCell id="474" style="edgeStyle=none;html=1;exitX=1;exitY=0.5;exitDx=0;exitDy=0;entryX=0;entryY=0.5;entryDx=0;entryDy=0;" edge="1" parent="1" source="451" target="452">
                    <mxGeometry relative="1" as="geometry"/>
                </mxCell>
                <mxCell id="451" value="s" style="ellipse;whiteSpace=wrap;html=1;aspect=fixed;fontFamily=Georgia;" vertex="1" parent="1">
                    <mxGeometry x="162" y="2846" width="27" height="27" as="geometry"/>
                </mxCell>
                <mxCell id="481" style="edgeStyle=none;html=1;exitX=1;exitY=0.5;exitDx=0;exitDy=0;entryX=0;entryY=0.5;entryDx=0;entryDy=0;" edge="1" parent="1" source="452" target="458">
                    <mxGeometry relative="1" as="geometry"/>
                </mxCell>
                <mxCell id="482" style="edgeStyle=none;html=1;exitX=1;exitY=0.5;exitDx=0;exitDy=0;entryX=0;entryY=0.5;entryDx=0;entryDy=0;" edge="1" parent="1" source="452" target="455">
                    <mxGeometry relative="1" as="geometry"/>
                </mxCell>
                <mxCell id="483" style="edgeStyle=none;html=1;exitX=1;exitY=0.5;exitDx=0;exitDy=0;entryX=0;entryY=0.5;entryDx=0;entryDy=0;" edge="1" parent="1" source="452" target="453">
                    <mxGeometry relative="1" as="geometry"/>
                </mxCell>
                <mxCell id="452" value="&amp;nbsp;" style="ellipse;whiteSpace=wrap;html=1;aspect=fixed;fontFamily=Georgia;" vertex="1" parent="1">
                    <mxGeometry x="265" y="2846" width="27" height="27" as="geometry"/>
                </mxCell>
                <mxCell id="453" value="" style="ellipse;whiteSpace=wrap;html=1;aspect=fixed;fontFamily=Georgia;" vertex="1" parent="1">
                    <mxGeometry x="368" y="2846" width="27" height="27" as="geometry"/>
                </mxCell>
                <mxCell id="455" value="&lt;span style=&quot;color: rgba(0, 0, 0, 0); font-family: monospace; font-size: 0px; text-align: start;&quot;&gt;%3CmxGraphModel%3E%3Croot%3E%3CmxCell%20id%3D%220%22%2F%3E%3CmxCell%20id%3D%221%22%20parent%3D%220%22%2F%3E%3CmxCell%20id%3D%222%22%20value%3D%22%22%20style%3D%22ellipse%3BwhiteSpace%3Dwrap%3Bhtml%3D1%3Baspect%3Dfixed%3BfontFamily%3DGeorgia%3B%22%20vertex%3D%221%22%20parent%3D%221%22%3E%3CmxGeometry%20x%3D%22271.5%22%20y%3D%22622%22%20width%3D%2227%22%20height%3D%2227%22%20as%3D%22geometry%22%2F%3E%3C%2FmxCell%3E%3CmxCell%20id%3D%223%22%20value%3D%22t2%22%20style%3D%22ellipse%3BwhiteSpace%3Dwrap%3Bhtml%3D1%3Baspect%3Dfixed%3BfontFamily%3DGeorgia%3B%22%20vertex%3D%221%22%20parent%3D%221%22%3E%3CmxGeometry%20x%3D%22374.5%22%20y%3D%22622%22%20width%3D%2227%22%20height%3D%2227%22%20as%3D%22geometry%22%2F%3E%3C%2FmxCell%3E%3C%2Froot%3E%3C%2FmxGraphModel%3E&lt;/span&gt;" style="ellipse;whiteSpace=wrap;html=1;aspect=fixed;fontFamily=Georgia;" vertex="1" parent="1">
                    <mxGeometry x="368" y="2747" width="27" height="27" as="geometry"/>
                </mxCell>
                <mxCell id="475" style="edgeStyle=none;html=1;exitX=1;exitY=0.5;exitDx=0;exitDy=0;entryX=0;entryY=0.5;entryDx=0;entryDy=0;fillColor=#f8cecc;strokeColor=#b85450;" edge="1" parent="1" source="457" target="458">
                    <mxGeometry relative="1" as="geometry"/>
                </mxCell>
                <mxCell id="476" style="edgeStyle=none;html=1;exitX=1;exitY=0.5;exitDx=0;exitDy=0;entryX=0;entryY=0.5;entryDx=0;entryDy=0;" edge="1" parent="1" source="457" target="455">
                    <mxGeometry relative="1" as="geometry"/>
                </mxCell>
                <mxCell id="477" style="edgeStyle=none;html=1;exitX=1;exitY=0.5;exitDx=0;exitDy=0;entryX=0;entryY=0.5;entryDx=0;entryDy=0;" edge="1" parent="1" source="457" target="453">
                    <mxGeometry relative="1" as="geometry"/>
                </mxCell>
                <mxCell id="457" value="s" style="ellipse;whiteSpace=wrap;html=1;aspect=fixed;fontFamily=Georgia;" vertex="1" parent="1">
                    <mxGeometry x="265" y="2648" width="27" height="27" as="geometry"/>
                </mxCell>
                <mxCell id="458" value="t1" style="ellipse;whiteSpace=wrap;html=1;aspect=fixed;fontFamily=Georgia;" vertex="1" parent="1">
                    <mxGeometry x="368" y="2648" width="27" height="27" as="geometry"/>
                </mxCell>
                <mxCell id="466" style="edgeStyle=none;html=1;exitX=1;exitY=0.5;exitDx=0;exitDy=0;entryX=0;entryY=0.5;entryDx=0;entryDy=0;fillColor=#d5e8d4;strokeColor=#82b366;" edge="1" parent="1" source="460" target="457">
                    <mxGeometry relative="1" as="geometry"/>
                </mxCell>
                <mxCell id="467" style="edgeStyle=none;html=1;exitX=1;exitY=0.5;exitDx=0;exitDy=0;entryX=0;entryY=0.5;entryDx=0;entryDy=0;" edge="1" parent="1" source="460" target="461">
                    <mxGeometry relative="1" as="geometry"/>
                </mxCell>
                <mxCell id="468" style="edgeStyle=none;html=1;exitX=1;exitY=0.5;exitDx=0;exitDy=0;entryX=0;entryY=0.5;entryDx=0;entryDy=0;" edge="1" parent="1" source="460" target="452">
                    <mxGeometry relative="1" as="geometry"/>
                </mxCell>
                <mxCell id="460" value="s" style="ellipse;whiteSpace=wrap;html=1;aspect=fixed;fontFamily=Georgia;" vertex="1" parent="1">
                    <mxGeometry x="162" y="2648" width="27" height="27" as="geometry"/>
                </mxCell>
                <mxCell id="478" style="edgeStyle=none;html=1;exitX=1;exitY=0;exitDx=0;exitDy=0;entryX=0;entryY=0.5;entryDx=0;entryDy=0;" edge="1" parent="1" source="461" target="458">
                    <mxGeometry relative="1" as="geometry"/>
                </mxCell>
                <mxCell id="479" style="edgeStyle=none;html=1;exitX=1;exitY=0.5;exitDx=0;exitDy=0;entryX=0;entryY=0.5;entryDx=0;entryDy=0;" edge="1" parent="1" source="461" target="455">
                    <mxGeometry relative="1" as="geometry"/>
                </mxCell>
                <mxCell id="480" style="edgeStyle=none;html=1;exitX=1;exitY=1;exitDx=0;exitDy=0;entryX=0;entryY=0.5;entryDx=0;entryDy=0;" edge="1" parent="1" source="461" target="453">
                    <mxGeometry relative="1" as="geometry"/>
                </mxCell>
                <mxCell id="461" value="&amp;nbsp;" style="ellipse;whiteSpace=wrap;html=1;aspect=fixed;fontFamily=Georgia;" vertex="1" parent="1">
                    <mxGeometry x="265" y="2747" width="27" height="27" as="geometry"/>
                </mxCell>
                <mxCell id="469" style="edgeStyle=none;html=1;exitX=1;exitY=0;exitDx=0;exitDy=0;entryX=0;entryY=0.5;entryDx=0;entryDy=0;fillColor=#f8cecc;strokeColor=#b85450;" edge="1" parent="1" source="462" target="457">
                    <mxGeometry relative="1" as="geometry">
                        <mxPoint x="269" y="2671" as="targetPoint"/>
                    </mxGeometry>
                </mxCell>
                <mxCell id="470" style="edgeStyle=none;html=1;exitX=1;exitY=0.5;exitDx=0;exitDy=0;entryX=0;entryY=0.5;entryDx=0;entryDy=0;" edge="1" parent="1" source="462" target="461">
                    <mxGeometry relative="1" as="geometry"/>
                </mxCell>
                <mxCell id="471" style="edgeStyle=none;html=1;exitX=1;exitY=1;exitDx=0;exitDy=0;entryX=0;entryY=0.5;entryDx=0;entryDy=0;" edge="1" parent="1" source="462" target="452">
                    <mxGeometry relative="1" as="geometry"/>
                </mxCell>
                <mxCell id="462" value="s" style="ellipse;whiteSpace=wrap;html=1;aspect=fixed;fontFamily=Georgia;" vertex="1" parent="1">
                    <mxGeometry x="162" y="2747" width="27" height="27" as="geometry"/>
                </mxCell>
                <mxCell id="484" value="..." style="text;html=1;align=center;verticalAlign=middle;resizable=0;points=[];autosize=1;strokeColor=none;fillColor=none;" vertex="1" parent="1">
                    <mxGeometry x="433" y="2762" width="28" height="26" as="geometry"/>
                </mxCell>
                <mxCell id="494" value="L-layer" style="text;html=1;align=center;verticalAlign=middle;resizable=0;points=[];autosize=1;strokeColor=none;fillColor=none;fontFamily=Georgia;" vertex="1" parent="1">
                    <mxGeometry x="420" y="2733" width="56" height="26" as="geometry"/>
                </mxCell>
                <mxCell id="495" value="" style="ellipse;whiteSpace=wrap;html=1;aspect=fixed;fontFamily=Georgia;" vertex="1" parent="1">
                    <mxGeometry x="496.5" y="2648" width="27" height="27" as="geometry"/>
                </mxCell>
                <mxCell id="496" value="" style="ellipse;whiteSpace=wrap;html=1;aspect=fixed;fontFamily=Georgia;" vertex="1" parent="1">
                    <mxGeometry x="496.5" y="2747" width="27" height="27" as="geometry"/>
                </mxCell>
                <mxCell id="497" value="" style="ellipse;whiteSpace=wrap;html=1;aspect=fixed;fontFamily=Georgia;" vertex="1" parent="1">
                    <mxGeometry x="496.5" y="2846" width="27" height="27" as="geometry"/>
                </mxCell>
                <mxCell id="510" value="&lt;span style=&quot;color: rgba(0, 0, 0, 0); font-family: monospace; font-size: 0px; text-align: start;&quot;&gt;%3CmxGraphModel%3E%3Croot%3E%3CmxCell%20id%3D%220%22%2F%3E%3CmxCell%20id%3D%221%22%20parent%3D%220%22%2F%3E%3CmxCell%20id%3D%222%22%20value%3D%22%22%20style%3D%22ellipse%3BwhiteSpace%3Dwrap%3Bhtml%3D1%3Baspect%3Dfixed%3BfontFamily%3DGeorgia%3B%22%20vertex%3D%221%22%20parent%3D%221%22%3E%3CmxGeometry%20x%3D%22271.5%22%20y%3D%22622%22%20width%3D%2227%22%20height%3D%2227%22%20as%3D%22geometry%22%2F%3E%3C%2FmxCell%3E%3CmxCell%20id%3D%223%22%20value%3D%22t2%22%20style%3D%22ellipse%3BwhiteSpace%3Dwrap%3Bhtml%3D1%3Baspect%3Dfixed%3BfontFamily%3DGeorgia%3B%22%20vertex%3D%221%22%20parent%3D%221%22%3E%3CmxGeometry%20x%3D%22374.5%22%20y%3D%22622%22%20width%3D%2227%22%20height%3D%2227%22%20as%3D%22geometry%22%2F%3E%3C%2FmxCell%3E%3C%2Froot%3E%3C%2FmxGraphModel%3E&lt;/span&gt;" style="ellipse;whiteSpace=wrap;html=1;aspect=fixed;fontFamily=Georgia;" vertex="1" parent="1">
                    <mxGeometry x="356.5" y="3103" width="27" height="27" as="geometry"/>
                </mxCell>
                <mxCell id="514" style="edgeStyle=none;html=1;exitX=1;exitY=0.5;exitDx=0;exitDy=0;entryX=0;entryY=0.5;entryDx=0;entryDy=0;" edge="1" parent="1" source="517" target="518">
                    <mxGeometry relative="1" as="geometry"/>
                </mxCell>
                <mxCell id="515" style="edgeStyle=none;html=1;exitX=1;exitY=0.5;exitDx=0;exitDy=0;entryX=0;entryY=0.5;entryDx=0;entryDy=0;fillColor=#d5e8d4;strokeColor=#82b366;" edge="1" parent="1" source="517" target="510">
                    <mxGeometry relative="1" as="geometry"/>
                </mxCell>
                <mxCell id="517" value="s" style="ellipse;whiteSpace=wrap;html=1;aspect=fixed;fontFamily=Georgia;" vertex="1" parent="1">
                    <mxGeometry x="253.5" y="3004" width="27" height="27" as="geometry"/>
                </mxCell>
                <mxCell id="518" value="t1" style="ellipse;whiteSpace=wrap;html=1;aspect=fixed;fontFamily=Georgia;" vertex="1" parent="1">
                    <mxGeometry x="356.5" y="3004" width="27" height="27" as="geometry"/>
                </mxCell>
                <mxCell id="523" style="edgeStyle=none;html=1;exitX=1;exitY=0.5;exitDx=0;exitDy=0;entryX=0;entryY=0.5;entryDx=0;entryDy=0;" edge="1" parent="1" source="525" target="529">
                    <mxGeometry relative="1" as="geometry"/>
                </mxCell>
                <mxCell id="545" style="edgeStyle=none;html=1;exitX=1;exitY=0.5;exitDx=0;exitDy=0;entryX=0;entryY=0.5;entryDx=0;entryDy=0;fontFamily=Georgia;fillColor=#d5e8d4;strokeColor=#82b366;" edge="1" parent="1" source="525" target="517">
                    <mxGeometry relative="1" as="geometry"/>
                </mxCell>
                <mxCell id="525" value="s" style="ellipse;whiteSpace=wrap;html=1;aspect=fixed;fontFamily=Georgia;" vertex="1" parent="1">
                    <mxGeometry x="150.5" y="3004" width="27" height="27" as="geometry"/>
                </mxCell>
                <mxCell id="526" style="edgeStyle=none;html=1;exitX=1;exitY=0;exitDx=0;exitDy=0;entryX=0;entryY=0.5;entryDx=0;entryDy=0;" edge="1" parent="1" source="529" target="518">
                    <mxGeometry relative="1" as="geometry"/>
                </mxCell>
                <mxCell id="543" style="edgeStyle=none;html=1;exitX=1;exitY=0.5;exitDx=0;exitDy=0;entryX=0;entryY=0.5;entryDx=0;entryDy=0;fontFamily=Georgia;" edge="1" parent="1" source="529" target="510">
                    <mxGeometry relative="1" as="geometry"/>
                </mxCell>
                <mxCell id="529" value="&amp;nbsp;" style="ellipse;whiteSpace=wrap;html=1;aspect=fixed;fontFamily=Georgia;" vertex="1" parent="1">
                    <mxGeometry x="253.5" y="3103" width="27" height="27" as="geometry"/>
                </mxCell>
                <mxCell id="530" style="edgeStyle=none;html=1;exitX=1;exitY=0;exitDx=0;exitDy=0;entryX=0;entryY=0.5;entryDx=0;entryDy=0;" edge="1" parent="1" source="533" target="517">
                    <mxGeometry relative="1" as="geometry">
                        <mxPoint x="257.5" y="3027" as="targetPoint"/>
                    </mxGeometry>
                </mxCell>
                <mxCell id="542" style="edgeStyle=none;html=1;exitX=1;exitY=0.5;exitDx=0;exitDy=0;entryX=0;entryY=0.5;entryDx=0;entryDy=0;fontFamily=Georgia;" edge="1" parent="1" source="533" target="529">
                    <mxGeometry relative="1" as="geometry"/>
                </mxCell>
                <mxCell id="533" value="s" style="ellipse;whiteSpace=wrap;html=1;aspect=fixed;fontFamily=Georgia;" vertex="1" parent="1">
                    <mxGeometry x="150.5" y="3103" width="27" height="27" as="geometry"/>
                </mxCell>
                <mxCell id="538" value="L-layer" style="text;html=1;align=center;verticalAlign=middle;resizable=0;points=[];autosize=1;strokeColor=none;fillColor=none;fontFamily=Georgia;" vertex="1" parent="1">
                    <mxGeometry x="502" y="3089" width="56" height="26" as="geometry"/>
                </mxCell>
                <mxCell id="539" value="" style="ellipse;whiteSpace=wrap;html=1;aspect=fixed;fontFamily=Georgia;" vertex="1" parent="1">
                    <mxGeometry x="578.5" y="3004" width="27" height="27" as="geometry"/>
                </mxCell>
                <mxCell id="540" value="" style="ellipse;whiteSpace=wrap;html=1;aspect=fixed;fontFamily=Georgia;" vertex="1" parent="1">
                    <mxGeometry x="578.5" y="3103" width="27" height="27" as="geometry"/>
                </mxCell>
            </root>
        </mxGraphModel>
    </diagram>
</mxfile>